<?xml version="1.0" encoding="UTF-8" standalone="no"?><!DOCTYPE svg PUBLIC "-//W3C//DTD SVG 1.1//EN" "http://www.w3.org/Graphics/SVG/1.1/DTD/svg11.dtd"><svg width="100%" height="100%" viewBox="0 0 701 85" version="1.1" xmlns="http://www.w3.org/2000/svg" xmlns:xlink="http://www.w3.org/1999/xlink" xml:space="preserve" xmlns:serif="http://www.serif.com/" style="fill-rule:evenodd;clip-rule:evenodd;stroke-linejoin:round;stroke-miterlimit:2;"><path d="M619.662,24.08c3.287,0 6.632,0.784 10.034,2.351c3.401,1.567 6.326,3.727 8.772,6.479l-0,-7.683l9.402,-0l0,57.333l-9.402,0l-0,-9.746c-1.988,3.058 -4.683,5.733 -8.084,8.026c-3.402,2.294 -7.282,3.44 -11.639,3.44c-4.893,0 -9.365,-1.242 -13.416,-3.726c-4.052,-2.485 -7.281,-5.944 -9.69,-10.378c-2.408,-4.433 -3.612,-9.555 -3.612,-15.365c0,-6.345 1.204,-11.811 3.612,-16.397c2.409,-4.587 5.715,-8.123 9.919,-10.607c4.205,-2.485 8.906,-3.727 14.104,-3.727Zm-233.921,0c5.81,0 10.97,1.376 15.48,4.128c4.51,2.752 8.046,6.422 10.607,11.008c2.561,4.587 3.841,9.594 3.841,15.022c0,5.427 -1.28,10.415 -3.841,14.964c-2.561,4.548 -6.097,8.198 -10.607,10.95c-4.51,2.752 -9.67,4.128 -15.48,4.128c-5.81,0 -10.97,-1.376 -15.48,-4.128c-4.51,-2.752 -8.046,-6.402 -10.607,-10.95c-2.561,-4.549 -3.841,-9.537 -3.841,-14.964c-0,-5.428 1.28,-10.435 3.841,-15.022c2.561,-4.586 6.097,-8.256 10.607,-11.008c4.51,-2.752 9.67,-4.128 15.48,-4.128Zm97.238,-24.08l-0,82.56l-9.403,0l0,-9.746c-1.987,3.058 -4.682,5.733 -8.084,8.026c-3.402,2.294 -7.281,3.44 -11.639,3.44c-4.892,0 -9.364,-1.242 -13.416,-3.726c-4.051,-2.485 -7.281,-5.944 -9.689,-10.378c-2.408,-4.433 -3.612,-9.555 -3.612,-15.365c-0,-6.345 1.204,-11.811 3.612,-16.397c2.408,-4.587 5.714,-8.123 9.919,-10.607c4.204,-2.485 8.905,-3.727 14.104,-3.727c3.287,0 6.631,0.784 10.033,2.351c3.402,1.567 6.326,3.727 8.772,6.479l0,-32.91l9.403,0Zm66.392,25.227l0,33.941c0,5.046 -1.07,9.403 -3.21,13.072c-2.141,3.67 -5.046,6.498 -8.715,8.486c-3.67,1.987 -7.798,2.981 -12.384,2.981c-4.587,0 -8.715,-0.994 -12.384,-2.981c-3.67,-1.988 -6.575,-4.816 -8.715,-8.486c-2.141,-3.669 -3.211,-8.026 -3.211,-13.072l0,-33.941l9.747,-0l-0,33.941c-0,4.969 1.472,8.772 4.415,11.41c2.943,2.637 6.325,3.956 10.148,3.956c3.822,-0 7.205,-1.319 10.148,-3.956c2.943,-2.638 4.414,-6.441 4.414,-11.41l0,-33.941l9.747,-0Zm-211.905,-19.494l-0,76.827l-10.32,0l-0,-55.613l-23.736,25.341l-2.752,0l-24.31,-25.341l0,55.613l-10.32,0l0,-76.827l3.211,0l32.795,35.203l32.221,-35.203l3.211,0Zm239.081,-5.733l0,82.56l-9.402,0l-0,-82.56l9.402,0Zm100.22,25.227l-0,11.467c2.217,-3.823 4.892,-6.88 8.026,-9.174c3.135,-2.293 6.345,-3.44 9.632,-3.44c2.217,0 4.205,0.382 5.963,1.147l0,10.893c-2.446,-1.452 -4.892,-2.178 -7.339,-2.178c-3.898,-0 -7.052,1.376 -9.46,4.128c-2.408,2.752 -4.682,6.039 -6.822,9.861l-0,34.629l-9.403,0l-0,-57.333l9.403,-0Zm-55.385,8.027c-4.128,-0 -7.644,1.032 -10.549,3.096c-2.905,2.064 -5.141,4.72 -6.708,7.969c-1.567,3.249 -2.351,6.746 -2.351,10.492c0,3.669 0.765,7.052 2.294,10.148c1.528,3.096 3.688,5.561 6.478,7.396c2.79,1.835 6.02,2.752 9.69,2.752c3.516,0 6.65,-0.917 9.402,-2.752c2.752,-1.835 4.931,-4.376 6.536,-7.625c1.606,-3.249 2.37,-6.899 2.294,-10.951l-0.115,-11.008c-2.37,-2.981 -4.912,-5.313 -7.625,-6.995c-2.714,-1.682 -5.829,-2.522 -9.346,-2.522Zm-235.641,-0c-4.052,-0 -7.606,0.974 -10.664,2.924c-3.058,1.949 -5.409,4.51 -7.052,7.682c-1.644,3.173 -2.466,6.632 -2.466,10.378c0,3.669 0.822,7.09 2.466,10.262c1.643,3.173 3.994,5.734 7.052,7.683c3.058,1.949 6.612,2.924 10.664,2.924c4.128,0 7.702,-0.975 10.721,-2.924c3.02,-1.949 5.351,-4.51 6.995,-7.683c1.644,-3.172 2.465,-6.593 2.465,-10.262c0,-3.746 -0.821,-7.205 -2.465,-10.378c-1.644,-3.172 -3.975,-5.733 -6.995,-7.682c-3.019,-1.95 -6.593,-2.924 -10.721,-2.924Zm70.75,0.229c-4.128,-0 -7.645,1.013 -10.55,3.039c-2.905,2.025 -5.141,4.644 -6.708,7.854c-1.567,3.211 -2.35,6.689 -2.35,10.435c-0,3.669 0.764,7.052 2.293,10.148c1.529,3.096 3.688,5.561 6.479,7.396c2.79,1.835 6.02,2.752 9.689,2.752c3.516,0 6.651,-0.917 9.403,-2.752c2.752,-1.835 4.93,-4.376 6.536,-7.625c1.605,-3.249 2.37,-6.899 2.293,-10.951l-0.115,-11.008c-2.369,-2.981 -4.911,-5.275 -7.625,-6.88c-2.714,-1.605 -5.829,-2.408 -9.345,-2.408Z" style="fill:#fff;fill-rule:nonzero;"/><path d="M40.478,4.013c5.58,0 10.148,0.765 13.702,2.294c3.555,1.529 6.67,3.516 9.346,5.962l-0,11.352c-1.682,-1.223 -3.574,-2.56 -5.676,-4.013c-2.103,-1.452 -4.549,-2.733 -7.339,-3.841c-2.79,-1.109 -6.135,-1.663 -10.033,-1.663c-5.734,0 -10.856,1.3 -15.366,3.899c-4.51,2.599 -8.065,6.173 -10.664,10.721c-2.599,4.549 -3.899,9.69 -3.899,15.423c0,5.733 1.3,10.855 3.899,15.365c2.599,4.511 6.154,8.084 10.664,10.722c4.51,2.637 9.632,3.956 15.366,3.956c5.886,-0 10.912,-0.975 15.078,-2.924c4.167,-1.95 7.587,-3.956 10.263,-6.02l0,10.32c-2.676,2.37 -6.173,4.414 -10.492,6.134c-4.319,1.72 -9.269,2.58 -14.849,2.58c-5.81,0 -11.161,-1.051 -16.054,-3.153c-4.892,-2.102 -9.173,-4.988 -12.843,-8.657c-3.669,-3.67 -6.517,-7.931 -8.542,-12.786c-2.026,-4.854 -3.039,-10.033 -3.039,-15.537c0,-5.504 1.013,-10.683 3.039,-15.537c2.025,-4.855 4.873,-9.117 8.542,-12.786c3.67,-3.669 7.951,-6.555 12.843,-8.657c4.893,-2.103 10.244,-3.154 16.054,-3.154Zm180.83,20.067c5.886,0 10.779,1.223 14.677,3.669c3.899,2.447 6.823,5.772 8.772,9.977c1.95,4.204 2.924,8.944 2.924,14.218l0,5.619l-44.032,0c0.459,3.211 1.567,6.154 3.326,8.829c1.758,2.676 4.051,4.797 6.88,6.364c2.828,1.568 6.077,2.351 9.746,2.351c4.128,0 7.989,-1.051 11.582,-3.153c3.593,-2.102 6.612,-4.415 9.058,-6.938l-0.114,10.206c-1.07,1.299 -2.657,2.656 -4.759,4.07c-2.102,1.415 -4.51,2.6 -7.224,3.555c-2.714,0.956 -5.561,1.433 -8.543,1.433c-5.81,0 -10.97,-1.376 -15.48,-4.128c-4.51,-2.752 -8.046,-6.402 -10.607,-10.95c-2.56,-4.549 -3.841,-9.537 -3.841,-14.964c0,-5.428 1.185,-10.435 3.555,-15.022c2.37,-4.586 5.638,-8.256 9.804,-11.008c4.166,-2.752 8.925,-4.128 14.276,-4.128Zm-114.094,0c5.81,0 10.97,1.376 15.48,4.128c4.51,2.752 8.046,6.422 10.607,11.008c2.561,4.587 3.841,9.594 3.841,15.022c0,5.427 -1.28,10.415 -3.841,14.964c-2.561,4.548 -6.097,8.198 -10.607,10.95c-4.51,2.752 -9.67,4.128 -15.48,4.128c-5.81,0 -10.97,-1.376 -15.48,-4.128c-4.51,-2.752 -8.046,-6.402 -10.607,-10.95c-2.561,-4.549 -3.841,-9.537 -3.841,-14.964c-0,-5.428 1.28,-10.435 3.841,-15.022c2.561,-4.586 6.097,-8.256 10.607,-11.008c4.51,-2.752 9.67,-4.128 15.48,-4.128Zm54.811,1.147l-0,11.467c2.217,-3.823 4.892,-6.88 8.027,-9.174c3.134,-2.293 6.345,-3.44 9.632,-3.44c2.217,0 4.204,0.382 5.962,1.147l0,10.893c-2.446,-1.452 -4.892,-2.178 -7.338,-2.178c-3.899,-0 -7.052,1.376 -9.46,4.128c-2.408,2.752 -4.683,6.039 -6.823,9.861l-0,34.629l-9.403,0l0,-57.333l9.403,-0Zm-54.811,8.027c-4.052,-0 -7.606,0.974 -10.664,2.924c-3.058,1.949 -5.409,4.51 -7.052,7.682c-1.644,3.173 -2.465,6.632 -2.465,10.378c-0,3.669 0.821,7.09 2.465,10.262c1.643,3.173 3.994,5.734 7.052,7.683c3.058,1.949 6.612,2.924 10.664,2.924c4.128,0 7.702,-0.975 10.721,-2.924c3.02,-1.949 5.352,-4.51 6.995,-7.683c1.644,-3.172 2.465,-6.593 2.465,-10.262c0,-3.746 -0.821,-7.205 -2.465,-10.378c-1.643,-3.172 -3.975,-5.733 -6.995,-7.682c-3.019,-1.95 -6.593,-2.924 -10.721,-2.924Zm114.094,-0c-4.74,-0 -8.638,1.586 -11.696,4.758c-3.058,3.173 -4.969,7.014 -5.733,11.524l34.514,0c-0.382,-3.746 -1.433,-6.803 -3.153,-9.173c-1.72,-2.37 -3.803,-4.147 -6.249,-5.332c-2.447,-1.185 -5.007,-1.777 -7.683,-1.777Z" style="fill:#00d4ff;fill-rule:nonzero;"/></svg>